<?xml version="1.0" encoding="utf-8"?>
<!DOCTYPE svg PUBLIC "-//W3C//DTD SVG 1.0//EN" "http://www.w3.org/TR/2001/REC-SVG-20010904/DTD/svg10.dtd">
<svg version="1.0" xmlns="http://www.w3.org/2000/svg" width="209px" height="209px" viewBox="0 0 209 209" preserveAspectRatio="xMidYMid meet">
 <g fill="#6437df">
  <path d="M89 190.5 c-0.8 -0.2 -4.9 -0.9 -9 -1.5 -16 -2.6 -29.5 -10.1 -39.3 -21.7 -5.4 -6.4 -10.1 -14.8 -9.4 -16.7 0.5 -1.2 16.9 -6.6 19.8 -6.6 0.8 0 2.8 2.3 4.4 5.1 5.8 9.8 15.2 16.7 28 20.5 8.5 2.5 30.7 2.5 38.9 0 20.6 -6.2 33.4 -20.3 39.2 -43.1 2.8 -10.9 2.5 -36.3 -0.5 -47 -5.9 -21.2 -16.5 -33.9 -34.1 -41.1 -21.9 -8.9 -53.6 -4.6 -73.7 9.9 l-5.3 3.8 0 15.9 0 16 24.9 0 c15.3 0 25.1 0.4 25.3 1 0.2 0.5 0.2 5 0 10 l-0.3 9 -35.7 -0.2 -35.7 -0.3 -0.3 -29.4 -0.2 -29.5 3.2 -3.4 c5.3 -5.5 20 -14.7 28.7 -18.1 16.2 -6.3 23.7 -7.6 43.6 -7.5 15.4 0 19.2 0.3 26.5 2.2 28.6 7.4 48.3 27.4 56 56.7 2.8 10.4 3.8 33.3 2.1 47.1 -4.8 38.6 -28.8 62.8 -67.6 68.4 -6.3 0.9 -25.8 1.2 -29.5 0.5z"/>
 </g>
</svg>